HIERARCHY
ROOT SimulationBone
{
	OFFSET 0.000000 0.000000 0.000000
	CHANNELS 6 Xposition Yposition Zposition Zrotation Yrotation Xrotation 
	JOINT Hips
	{
		OFFSET 0.000000 0.000000 0.000000
		CHANNELS 6 Xposition Yposition Zposition Zrotation Yrotation Xrotation 
		JOINT LeftUpLeg
		{
			OFFSET 0.103459 1.857839 10.548500
			CHANNELS 3 Zrotation Yrotation Xrotation
			JOINT LeftLeg
			{
				OFFSET 43.500004 -0.000053 -0.000011
				CHANNELS 3 Zrotation Yrotation Xrotation
				JOINT LeftFoot
				{
					OFFSET 42.372192 0.000015 -0.000008
					CHANNELS 3 Zrotation Yrotation Xrotation
					JOINT LeftToe
					{
						OFFSET 17.300007 0.000002 0.000013
						CHANNELS 3 Zrotation Yrotation Xrotation
						End Site
						{
							OFFSET 0.000000 0.000000 0.000000
						}
					}
				}
			}
		}
		JOINT RightUpLeg
		{
			OFFSET 0.103460 1.857826 -10.548500
			CHANNELS 3 Zrotation Yrotation Xrotation
			JOINT RightLeg
			{
				OFFSET 43.500046 -0.000019 0.000011
				CHANNELS 3 Zrotation Yrotation Xrotation
				JOINT RightFoot
				{
					OFFSET 42.372261 0.000004 0.000012
					CHANNELS 3 Zrotation Yrotation Xrotation
					JOINT RightToe
					{
						OFFSET 17.299995 -0.000004 0.000006
						CHANNELS 3 Zrotation Yrotation Xrotation
						End Site
						{
							OFFSET 0.000000 0.000000 0.000000
						}
					}
				}
			}
		}
		JOINT Spine
		{
			OFFSET 6.901963 -2.603745 -0.000005
			CHANNELS 3 Zrotation Yrotation Xrotation
			JOINT Spine1
			{
				OFFSET 12.588102 0.000012 0.000012
				CHANNELS 3 Zrotation Yrotation Xrotation
				JOINT Spine2
				{
					OFFSET 12.343202 0.000010 -0.000009
					CHANNELS 3 Zrotation Yrotation Xrotation
					JOINT Neck
					{
						OFFSET 25.832901 -0.000008 0.000006
						CHANNELS 3 Zrotation Yrotation Xrotation
						JOINT Head
						{
							OFFSET 11.766603 0.000007 -0.000001
							CHANNELS 3 Zrotation Yrotation Xrotation
							End Site
							{
								OFFSET 0.000000 0.000000 0.000000
							}
						}
					}
					JOINT LeftShoulder
					{
						OFFSET 19.745903 -1.480391 6.000108
						CHANNELS 3 Zrotation Yrotation Xrotation
						JOINT LeftArm
						{
							OFFSET 11.284125 -0.000031 -0.000021
							CHANNELS 3 Zrotation Yrotation Xrotation
							JOINT LeftForeArm
							{
								OFFSET 33.000046 0.000024 0.000034
								CHANNELS 3 Zrotation Yrotation Xrotation
								JOINT LeftHand
								{
									OFFSET 25.200014 0.000020 0.000007
									CHANNELS 3 Zrotation Yrotation Xrotation
									End Site
									{
										OFFSET 0.000000 0.000000 0.000000
									}
								}
							}
						}
					}
					JOINT RightShoulder
					{
						OFFSET 19.746098 -1.480371 -6.000075
						CHANNELS 3 Zrotation Yrotation Xrotation
						JOINT RightArm
						{
							OFFSET 11.284128 -0.000021 -0.000009
							CHANNELS 3 Zrotation Yrotation Xrotation
							JOINT RightForeArm
							{
								OFFSET 33.000095 0.000034 0.000006
								CHANNELS 3 Zrotation Yrotation Xrotation
								JOINT RightHand
								{
									OFFSET 25.199781 0.000147 0.000427
									CHANNELS 3 Zrotation Yrotation Xrotation
									End Site
									{
										OFFSET 0.000000 0.000000 0.000000
									}
								}
							}
						}
					}
				}
			}
		}
	}
}
MOTION
Frames: 6
Frame Time: 0.016667
380.874591 0.000000 462.242383 180.000000 -85.569261 180.000000 -1.946770 83.530907 -1.026177 86.276287 -2.265118 178.406261 167.329307 -8.839606 164.697239 -83.834315 2.184701 -2.611052 74.214765 -0.250187 -6.746596 21.454555 0.003089 0.000003 148.622607 -6.094607 -163.441495 -49.383862 -2.213863 2.558268 96.957662 -3.142503 -14.751966 21.454558 -0.003106 -0.000019 6.234627 0.129766 -1.687833 2.452088 0.294309 -3.372618 2.134596 0.274094 -3.374336 7.453539 -3.072826 -1.694430 -10.263543 1.574682 -2.678249 -125.671525 -87.575019 -56.184604 -19.630497 67.387545 12.562144 -96.317701 -3.369302 2.821510 -9.008344 -4.889455 33.601562 -168.709961 74.261911 12.961056 20.345435 -57.771999 -38.612288 -67.588908 13.793453 -2.344685 -3.393424 11.451198 -9.399372 
381.566807 0.000000 465.981280 180.000000 -83.954096 180.000000 -2.369331 84.859651 -1.215690 86.007106 -2.044974 178.286983 162.999452 -9.154311 165.481471 -83.961341 2.644123 -4.194999 75.163354 1.450394 -4.888871 21.454558 0.003085 -0.000003 151.726782 -6.756245 -167.252049 -47.136660 -1.673395 3.166803 96.506041 -3.452466 -13.182599 21.454562 -0.003115 -0.000021 6.197730 0.089286 -1.468837 2.379973 0.207944 -2.935562 2.062326 0.190354 -2.936765 7.092179 -2.989737 -2.303179 -10.319077 1.914578 -3.403109 -131.123144 -87.036240 -50.746371 -12.788757 66.246749 19.264141 -96.688565 -3.355650 2.836703 -9.335358 -5.332739 32.732944 -169.875832 74.284957 11.764472 16.503204 -57.299028 -36.822311 -69.635724 13.388421 -2.412597 -4.047518 9.364411 -11.222767 
382.337479 0.000000 469.706261 180.000000 -82.348015 180.000000 -2.724453 86.210373 -1.312131 86.026086 -2.167599 178.501321 159.400141 -9.135292 166.366770 -82.484239 3.179740 -5.687023 75.613246 2.505349 -4.870887 21.454555 0.003087 -0.000003 154.872818 -6.549687 -170.304442 -45.291127 -1.266414 3.622453 95.199169 -3.745021 -11.651213 21.454562 -0.003119 -0.000020 6.218549 -0.026416 -1.301765 2.424570 -0.026267 -2.603784 2.106821 -0.041858 -2.603572 6.813031 -2.933449 -2.990974 -10.203117 2.461699 -4.268618 -134.424447 -86.648217 -47.452233 -6.215142 64.865458 25.567639 -97.118165 -3.253116 2.848984 -9.289971 -5.907244 31.258981 -170.702027 74.874312 10.918949 13.838722 -57.283155 -35.567840 -72.192127 12.691164 -2.457952 -3.705634 7.625091 -13.423145 
383.177232 0.000000 473.414789 180.000000 -80.748923 180.000000 -3.003841 87.536708 -1.341383 86.203822 -2.460715 178.955780 156.445684 -8.911482 167.284539 -79.592900 3.808426 -6.992072 75.326503 3.163887 -5.670486 21.454550 0.003092 -0.000001 157.850470 -5.770419 -172.583674 -43.900970 -1.037675 3.888608 93.117499 -3.961057 -10.209157 21.454559 -0.003119 -0.000018 6.271041 -0.177502 -1.165228 2.532619 -0.330098 -2.334001 2.214791 -0.344058 -2.331953 6.620114 -2.940693 -3.771069 -10.027260 3.209735 -5.292109 -135.846416 -86.413200 -46.035679 -0.198764 63.373611 31.209142 -97.601022 -3.105920 2.860358 -8.956480 -6.457942 29.668132 -171.409593 75.722349 10.198068 12.276579 -57.371326 -34.624096 -75.315356 11.628761 -2.508708 -2.971359 6.155360 -15.788086 
384.076689 0.000000 477.104331 180.000000 -79.154915 180.000000 -3.201812 88.792290 -1.329734 86.421776 -2.745692 179.555958 154.045012 -8.615901 168.187644 -75.468562 4.519387 -8.016344 74.114163 3.642768 -6.255723 21.454548 0.003098 -0.000001 160.498572 -4.720987 -174.113120 -43.019700 -1.034157 3.929300 90.342788 -4.052610 -8.912922 21.454557 -0.003117 -0.000017 6.329346 -0.323965 -1.037746 2.651565 -0.624638 -2.082532 2.333665 -0.637073 -2.078709 6.518695 -3.047788 -4.656796 -9.904947 4.149455 -6.493192 -135.086635 -86.329052 -46.803595 5.143784 61.941624 36.098204 -98.131704 -2.958245 2.873430 -8.436044 -6.835225 28.454261 -172.171965 76.518263 9.422995 11.825693 -57.193161 -33.855621 -79.062738 10.122924 -2.572185 -2.449610 4.832060 -18.066308 
385.026471 0.000000 480.772352 180.000000 -77.564276 180.000000 -3.310091 89.921705 -1.296132 86.591586 -2.867861 -179.786050 152.140050 -8.388175 169.061270 -70.296322 5.239497 -8.691371 72.089023 4.110704 -5.956594 21.454551 0.003101 -0.000003 162.707905 -3.647374 -174.969108 -42.702575 -1.263234 3.729753 87.024938 -3.979595 -7.744961 21.454558 -0.003113 -0.000017 6.370472 -0.428267 -0.903259 2.734803 -0.835570 -1.816223 2.416835 -0.846387 -1.811140 6.489925 -3.292305 -5.643484 -9.873134 5.253506 -7.868945 -131.892124 -86.360355 -50.011946 9.878281 60.708943 40.323994 -98.715039 -2.842087 2.891077 -7.890897 -6.959483 27.947944 -173.000651 77.024575 8.580108 12.391205 -56.466161 -33.170571 -83.419404 8.159871 -2.631270 -2.553236 3.602107 -19.993878 
